<?xml version="1.0" ?><svg height="37.000008mm" id="svg5" version="1.1" viewBox="0 0 37 37.000008" width="37mm" xmlns="http://www.w3.org/2000/svg" xmlns:svg="http://www.w3.org/2000/svg"><defs id="defs2"/><g id="layer1" transform="translate(-354.56373,-3.210647)"><path d="m 371.81053,9.5985728 v 1.0128742 h -2.0258 v 1.012871 h -1.01283 -1.0129 v 1.01287 h -1.01286 v 2.02574 h -1.01289 v 1.012876 3.038612 1.012869 h 1.01289 v 1.012871 1.01287 h -1.01289 v 2.02574 h 2.02575 v 1.012875 3.038613 h 1.0129 v 1.012869 h -1.0129 v 1.012871 h -1.01286 v 1.012875 h -1.01289 v 3.038614 h 1.01289 4.05146 1.01293 v -1.012874 h 4.05143 v 1.012874 h 5.06436 1.0129 v -3.038614 h -1.0129 v -1.012875 h -1.01288 v -1.012871 h -1.01288 v -1.012869 h 1.01288 v -3.038613 -1.012875 h 2.02578 v -1.012868 -1.012872 h -1.0129 v -1.01287 -1.012871 h 1.0129 v -5.064357 h -1.0129 v -2.02574 h -1.01288 v -1.01287 h -1.01288 -1.01282 v -1.012871 h -2.02578 V 9.5985728 Z M 367.759,20.740156 h 1.0129 1.01283 v 1.01287 1.012872 h -1.01283 v -1.012872 h -1.0129 z m 10.12874,0 h 1.01282 1.01288 v 1.01287 h -1.01288 v 1.012872 h -1.01282 v -1.012872 z" id="rect1119-1-4-4" style="fill:#000000;fill-opacity:0.203343;stroke-width:0.382821;stroke-linecap:round;stroke-linejoin:round;stroke-miterlimit:2"/><path d="m 367.759,10.611455 v 3.038613 h 2.02573 v -1.012855 h 1.01287 v -2.025758 h -1.01287 z m 3.0386,2.025758 v 3.038612 h 1.01293 v 1.012858 h 1.01283 1.01287 v -1.012858 h 1.01288 v -3.038612 h -1.01288 v -1.012895 h -1.01287 -1.01283 v 1.012895 z m 4.05151,0 h 1.01285 v 1.012855 h 1.01288 1.0129 v -3.038613 h -1.0129 -1.01288 -1.01285 z m -10.12874,1.012855 v 1.01286 3.038616 1.012891 h 2.02577 v -1.012891 h 1.01286 v -3.038616 h -1.01286 v -1.01286 z m 14.18019,0 v 1.01286 h -1.01282 v 3.038616 h 1.01282 v 1.012891 h 2.02576 V 13.650068 Z M 367.759,18.714435 v 1.012863 h 1.0129 v -1.012863 z m 9.11584,0 v 1.012863 h 1.0129 v -1.012863 z m -8.10294,3.038615 v 1.012858 h -1.0129 v 1.012858 h -1.01286 v 3.038613 h 3.03859 v -2.025713 h 1.01287 v -1.0129 h 4.05151 v 1.0129 h 1.01285 v 2.025713 h 3.0386 v -3.038613 h -1.01282 v -1.012858 h -1.0129 V 21.75305 h -1.01288 -1.01285 v 1.012858 H 370.7976 V 21.75305 Z m -3.03865,7.090086 v 1.012858 h 1.01289 v 1.012897 h -1.01289 v -1.012897 h -1.01288 v 3.038615 h 1.01288 4.05148 1.01287 v -2.025718 h -1.01287 v -1.012897 h -1.01283 v -1.012858 z m 11.14159,0 v 1.012858 h -1.01288 v 1.012897 h -1.01285 v 1.012855 1.012863 h 5.06433 1.01288 v -3.038615 h -1.01288 v 1.012897 h -1.01288 v -1.012897 h 1.01288 v -1.012858 z" id="rect1119-14-9" style="fill:#f83800;fill-opacity:1;stroke-width:0.382821;stroke-linecap:round;stroke-linejoin:round;stroke-miterlimit:2"/><path d="m 370.7976,8.5857028 v 1.012894 h -2.0257 v 1.0128582 h 2.0257 v 1.012863 1.012895 h 1.01293 v -1.012895 h 2.0257 v 1.012895 h 1.01288 v -1.012895 -1.012863 h 2.02573 V 9.5985968 h -2.02573 v -1.012894 z m 4.05151,4.0515102 v 1.012855 1.01286 1.012897 h -1.01288 v 1.012858 h -2.0257 v -1.012858 h -1.01293 v -1.012897 -1.01286 -1.012855 h -1.01287 v 1.012855 H 367.759 v -3.038613 h -1.01286 v 1.012863 h -1.01289 v 2.02575 h 1.01289 v 1.01286 h 1.01286 v 1.012897 1.012858 1.012861 h -1.01286 v 1.012891 h -1.01289 v 1.012863 h 2.02575 v -1.012863 h 1.0129 v -1.012891 h 8.10294 v 1.012891 h 1.0129 v 1.012863 h 2.0257 v -1.012863 h -1.01288 v -1.012891 h -1.01282 v -1.012861 -1.012858 -1.012897 h 1.01282 v -1.01286 h 1.01288 v -2.02575 h -1.01288 v -1.012863 h -1.01282 v 3.038613 h -2.02578 V 12.637213 Z M 367.759,26.817379 v 1.012899 h -1.01286 v 1.012858 h 2.02576 v 1.012858 h 1.01283 v 1.012897 h 1.01287 v 1.012855 h 4.05151 v -1.012855 h 1.01285 v -1.012897 h 1.01288 v -1.012858 h 2.02572 v -1.012858 h -1.01282 v -1.012899 h -5.06438 z m -2.02575,3.038615 v 1.012897 h 1.01289 v -1.012897 z m 13.16731,0 v 1.012897 h 1.01288 v -1.012897 z" id="rect1191-3-0" style="fill:#ffffff;fill-opacity:1;stroke-width:0.382821;stroke-linecap:round;stroke-linejoin:round;stroke-miterlimit:2"/><path d="m 368.7719,17.701544 v 2.025754 1.012858 1.012894 h 2.0257 v 1.012858 h 4.05151 V 21.75305 h 2.02573 v -1.012894 -1.012858 -2.025754 h -2.02573 v 2.025754 h -1.01288 v -2.025754 h -2.0257 v 2.025754 h -1.01293 v -2.025754 z m 8.10294,4.051506 v 1.012858 h 1.0129 v 1.012858 h 1.01282 v -1.012858 h 2.02576 V 21.75305 20.740156 h -1.01288 v -1.012858 h -1.01288 v 1.012858 h -1.01282 v 1.012894 z m -8.10294,0 h -1.0129 v -1.012894 h -1.01286 v -1.012858 h -1.01289 v 1.012858 h -1.01288 v 2.025752 h 2.02577 v 1.012858 h 1.01286 v -1.012858 h 1.0129 z m 3.03863,-1.012894 h 2.0257 v 1.012894 h -2.0257 z m -1.01293,3.03861 v 1.0129 h -1.01287 v 2.025713 h 6.07723 v -2.025713 h -1.01285 v -1.0129 z" id="rect1241-6-7" style="fill:#ffa440;fill-opacity:1;stroke-width:0.382821;stroke-linecap:round;stroke-linejoin:round;stroke-miterlimit:2"/><path d="m 370.7976,17.701544 v 2.025754 h 1.01293 v -2.025754 z m 3.03863,0 v 2.025754 h 1.01288 v -2.025754 z m -2.0257,3.038612 v 1.012894 h 2.0257 v -1.012894 z" id="rect1401-2-0" style="fill:#333333;fill-opacity:1;stroke-width:0.382821;stroke-linecap:round;stroke-linejoin:round;stroke-miterlimit:2"/></g></svg>